<?xml version="1.0" encoding="UTF-8" standalone="no"?>
<svg xmlns="http://www.w3.org/2000/svg" viewBox="0 0 300 100">
  <!-- Logo Icon -->
  <g transform="translate(10, 0)">
    <rect width="100" height="100" rx="20" fill="#2563eb"/>
    <path d="M30 40 L50 25 L70 40 L70 65 L50 80 L30 65 Z" fill="white" stroke="#1d4ed8" stroke-width="2"/>
    <path d="M40 45 L50 38 L60 45 L60 60 L50 68 L40 60 Z" fill="#2563eb" stroke="white" stroke-width="1"/>
  </g>
  
  <!-- CompEcho Text -->
  <g transform="translate(120, 60)">
    <!-- Comp -->
    <path d="M0 0 Q0 -20 15 -20 Q25 -20 30 -10 L25 -5 Q22 -12 15 -12 Q7 -12 7 0 Q7 12 15 12 Q22 12 25 5 L30 10 Q25 20 15 20 Q0 20 0 0 Z" fill="#2563eb"/>
    <!-- o -->
    <path d="M35 0 Q35 -12 42 -12 Q49 -12 49 0 Q49 12 42 12 Q35 12 35 0 Z M42 -20 Q30 -20 27 -10 Q27 10 30 20 Q42 20 54 20 Q57 10 57 -10 Q54 -20 42 -20 Z" fill="#2563eb"/>
    <!-- m -->
    <path d="M62 -20 L70 -20 L70 0 Q70 12 77 12 Q84 12 84 0 L84 -20 L92 -20 L92 0 Q92 12 99 12 Q106 12 106 0 L106 -20 L114 -20 L114 20 L106 20 L106 15 Q103 20 99 20 Q92 20 88 10 Q85 20 77 20 Q70 20 66 10 L66 20 L62 20 Z" fill="#2563eb"/>
    <!-- p -->
    <path d="M119 -20 L127 -20 L127 -15 Q130 -20 137 -20 Q152 -20 152 0 Q152 20 137 20 Q130 20 127 15 L127 40 L119 40 Z M127 0 Q127 12 134 12 Q142 12 142 0 Q142 -12 134 -12 Q127 -12 127 0 Z" fill="#2563eb"/>
    <!-- E -->
    <path d="M157 -20 L187 -20 L187 -12 L165 -12 L165 -4 L182 -4 L182 4 L165 4 L165 12 L187 12 L187 20 L157 20 Z" fill="#2563eb"/>
    <!-- c -->
    <path d="M192 0 Q192 -12 199 -12 Q206 -12 209 -5 L214 -10 Q209 -20 199 -20 Q184 -20 184 0 Q184 20 199 20 Q209 20 214 10 L209 5 Q206 12 199 12 Q192 12 192 0 Z" fill="#2563eb"/>
    <!-- h -->
    <path d="M219 -40 L227 -40 L227 -15 Q230 -20 237 -20 Q252 -20 252 0 L252 20 L244 20 L244 0 Q244 -12 237 -12 Q229 -12 229 0 L229 20 L219 20 Z" fill="#2563eb"/>
    <!-- o -->
    <path d="M257 0 Q257 -12 264 -12 Q271 -12 271 0 Q271 12 264 12 Q257 12 257 0 Z M264 -20 Q252 -20 249 -10 Q249 10 252 20 Q264 20 276 20 Q279 10 279 -10 Q276 -20 264 -20 Z" fill="#2563eb"/>
  </g>
</svg> 